<svg width="800" height="600" xmlns="http://www.w3.org/2000/svg">
  <!-- Background -->
  <rect width="800" height="600" fill="#1e1e1e"/>
  
  <!-- Title -->
  <text x="400" y="40" font-family="sans-serif" font-size="24" fill="#F0DB4F" text-anchor="middle" font-weight="bold">
    Destructuring de Objetos
  </text>
  
  <!-- Object Original -->
  <text x="50" y="90" font-family="sans-serif" font-size="16" fill="#9CDCFE">
    Objeto Original:
  </text>
  <rect x="50" y="100" width="700" height="120" fill="#2d2d2d" stroke="#F0DB4F" stroke-width="2" rx="4"/>
  <text x="70" y="130" font-family="monospace" font-size="14" fill="#CE9178">
    const user = {
  </text>
  <text x="100" y="155" font-family="monospace" font-size="14" fill="#9CDCFE">name: <tspan fill="#CE9178">'Ana'</tspan>,</text>
  <text x="100" y="180" font-family="monospace" font-size="14" fill="#9CDCFE">age: <tspan fill="#B5CEA8">25</tspan>,</text>
  <text x="100" y="205" font-family="monospace" font-size="14" fill="#9CDCFE">email: <tspan fill="#CE9178">'ana@example.com'</tspan></text>
  <text x="70" y="230" font-family="monospace" font-size="14" fill="#CE9178">}</text>
  
  <!-- Arrow Down -->
  <path d="M400 240 L400 280" stroke="#61DAFB" stroke-width="3" fill="none"/>
  <path d="M400 280 L390 270 M400 280 L410 270" stroke="#61DAFB" stroke-width="3" fill="none"/>
  
  <!-- Destructuring Syntax -->
  <rect x="50" y="290" width="700" height="80" fill="#2d2d2d" stroke="#4EC9B0" stroke-width="2" rx="4"/>
  <text x="70" y="320" font-family="monospace" font-size="14" fill="#4EC9B0">
    const { name, age, email: userEmail } = user
  </text>
  <text x="70" y="350" font-family="sans-serif" font-size="12" fill="#666666" font-style="italic">
    ↑ 'email' se renombra como 'userEmail' (alias)
  </text>
  
  <!-- Result Variables -->
  <text x="50" y="410" font-family="sans-serif" font-size="16" fill="#9CDCFE">
    Variables Resultantes:
  </text>
  
  <!-- Variable Boxes -->
  <g>
    <!-- name -->
    <rect x="50" y="430" width="200" height="120" fill="#2d2d2d" stroke="#F48771" stroke-width="2" rx="4"/>
    <text x="150" y="460" font-family="monospace" font-size="14" fill="#DCDCDC" text-anchor="middle" font-weight="bold">name</text>
    <rect x="75" y="475" width="150" height="50" fill="#1e1e1e" rx="4"/>
    <text x="150" y="490" font-family="monospace" font-size="12" fill="#666666" text-anchor="middle">valor</text>
    <text x="150" y="510" font-family="monospace" font-size="16" fill="#CE9178" text-anchor="middle">'Ana'</text>
    
    <!-- age -->
    <rect x="300" y="430" width="200" height="120" fill="#2d2d2d" stroke="#F48771" stroke-width="2" rx="4"/>
    <text x="400" y="460" font-family="monospace" font-size="14" fill="#DCDCDC" text-anchor="middle" font-weight="bold">age</text>
    <rect x="325" y="475" width="150" height="50" fill="#1e1e1e" rx="4"/>
    <text x="400" y="490" font-family="monospace" font-size="12" fill="#666666" text-anchor="middle">valor</text>
    <text x="400" y="510" font-family="monospace" font-size="16" fill="#B5CEA8" text-anchor="middle">25</text>
    
    <!-- userEmail (alias) -->
    <rect x="550" y="430" width="200" height="120" fill="#2d2d2d" stroke="#61DAFB" stroke-width="3" rx="4"/>
    <text x="650" y="460" font-family="monospace" font-size="14" fill="#61DAFB" text-anchor="middle" font-weight="bold">userEmail</text>
    <rect x="575" y="475" width="150" height="50" fill="#1e1e1e" rx="4"/>
    <text x="650" y="490" font-family="monospace" font-size="12" fill="#666666" text-anchor="middle">email →</text>
    <text x="650" y="510" font-family="monospace" font-size="14" fill="#CE9178" text-anchor="middle">'ana@example.com'</text>
  </g>
  
  <!-- Legend -->
  <rect x="50" y="570" width="300" height="20" fill="#61DAFB" opacity="0.3" rx="2"/>
  <text x="60" y="585" font-family="sans-serif" font-size="12" fill="#DCDCDC">
    Azul = Alias (nombre diferente a la propiedad)
  </text>
</svg>
