<svg width="900" height="650" xmlns="http://www.w3.org/2000/svg">
  <!-- Background -->
  <rect width="900" height="650" fill="#1e1e1e"/>
  
  <!-- Title -->
  <text x="450" y="40" font-family="sans-serif" font-size="24" fill="#F0DB4F" text-anchor="middle" font-weight="bold">
    Destructuring Anidado (Nested)
  </text>
  
  <!-- Nested Object Structure -->
  <text x="50" y="80" font-family="sans-serif" font-size="16" fill="#9CDCFE">
    Objeto Anidado:
  </text>
  <rect x="50" y="90" width="800" height="210" fill="#2d2d2d" stroke="#F0DB4F" stroke-width="2" rx="4"/>
  
  <g font-family="monospace" font-size="13">
    <text x="70" y="120" fill="#CE9178">const user = {</text>
    <text x="100" y="145" fill="#9CDCFE">name: <tspan fill="#CE9178">'Carlos'</tspan>,</text>
    <text x="100" y="170" fill="#9CDCFE">address: {</text>
    <text x="130" y="195" fill="#9CDCFE">city: <tspan fill="#CE9178">'Madrid'</tspan>,</text>
    <text x="130" y="220" fill="#9CDCFE">coordinates: {</text>
    <text x="160" y="245" fill="#9CDCFE">lat: <tspan fill="#B5CEA8">40.4168</tspan>,</text>
    <text x="160" y="270" fill="#9CDCFE">lng: <tspan fill="#B5CEA8">-3.7038</tspan></text>
    <text x="130" y="295" fill="#9CDCFE">}</text>
    <text x="100" y="320" fill="#9CDCFE">}</text>
    <text x="70" y="345" fill="#CE9178">}</text>
  </g>
  
  <!-- Levels indicator -->
  <g>
    <rect x="20" y="135" width="20" height="30" fill="#F48771" opacity="0.5"/>
    <text x="15" y="155" font-family="sans-serif" font-size="11" fill="#F48771" transform="rotate(-90 15 155)">Nivel 1</text>
    
    <rect x="20" y="185" width="20" height="75" fill="#61DAFB" opacity="0.5"/>
    <text x="15" y="215" font-family="sans-serif" font-size="11" fill="#61DAFB" transform="rotate(-90 15 215)">Nivel 2</text>
    
    <rect x="20" y="235" width="20" height="65" fill="#4EC9B0" opacity="0.5"/>
    <text x="15" y="260" font-family="sans-serif" font-size="11" fill="#4EC9B0" transform="rotate(-90 15 260)">Nivel 3</text>
  </g>
  
  <!-- Arrow Down -->
  <path d="M450 310 L450 350" stroke="#61DAFB" stroke-width="3" fill="none"/>
  <path d="M450 350 L440 340 M450 350 L460 340" stroke="#61DAFB" stroke-width="3" fill="none"/>
  
  <!-- Destructuring Syntax -->
  <rect x="50" y="360" width="800" height="100" fill="#2d2d2d" stroke="#4EC9B0" stroke-width="2" rx="4"/>
  <g font-family="monospace" font-size="13">
    <text x="70" y="390" fill="#4EC9B0">const {</text>
    <text x="100" y="415" fill="#4EC9B0">name,</text>
    <text x="100" y="440" fill="#4EC9B0">address: { city, coordinates: { lat, lng } }</text>
    <text x="70" y="465" fill="#4EC9B0">} = user</text>
  </g>
  
  <!-- Result Variables -->
  <text x="50" y="500" font-family="sans-serif" font-size="16" fill="#9CDCFE">
    Variables Extraídas:
  </text>
  
  <!-- Variable Boxes -->
  <g>
    <!-- name (level 1) -->
    <rect x="50" y="520" width="150" height="100" fill="#2d2d2d" stroke="#F48771" stroke-width="2" rx="4"/>
    <text x="125" y="545" font-family="monospace" font-size="13" fill="#F48771" text-anchor="middle" font-weight="bold">name</text>
    <text x="125" y="565" font-family="sans-serif" font-size="10" fill="#666666" text-anchor="middle">Nivel 1</text>
    <rect x="65" y="575" width="120" height="30" fill="#1e1e1e" rx="4"/>
    <text x="125" y="595" font-family="monospace" font-size="14" fill="#CE9178" text-anchor="middle">'Carlos'</text>
    
    <!-- city (level 2) -->
    <rect x="230" y="520" width="150" height="100" fill="#2d2d2d" stroke="#61DAFB" stroke-width="2" rx="4"/>
    <text x="305" y="545" font-family="monospace" font-size="13" fill="#61DAFB" text-anchor="middle" font-weight="bold">city</text>
    <text x="305" y="565" font-family="sans-serif" font-size="10" fill="#666666" text-anchor="middle">Nivel 2</text>
    <rect x="245" y="575" width="120" height="30" fill="#1e1e1e" rx="4"/>
    <text x="305" y="595" font-family="monospace" font-size="14" fill="#CE9178" text-anchor="middle">'Madrid'</text>
    
    <!-- lat (level 3) -->
    <rect x="410" y="520" width="150" height="100" fill="#2d2d2d" stroke="#4EC9B0" stroke-width="2" rx="4"/>
    <text x="485" y="545" font-family="monospace" font-size="13" fill="#4EC9B0" text-anchor="middle" font-weight="bold">lat</text>
    <text x="485" y="565" font-family="sans-serif" font-size="10" fill="#666666" text-anchor="middle">Nivel 3</text>
    <rect x="425" y="575" width="120" height="30" fill="#1e1e1e" rx="4"/>
    <text x="485" y="595" font-family="monospace" font-size="14" fill="#B5CEA8" text-anchor="middle">40.4168</text>
    
    <!-- lng (level 3) -->
    <rect x="590" y="520" width="150" height="100" fill="#2d2d2d" stroke="#4EC9B0" stroke-width="2" rx="4"/>
    <text x="665" y="545" font-family="monospace" font-size="13" fill="#4EC9B0" text-anchor="middle" font-weight="bold">lng</text>
    <text x="665" y="565" font-family="sans-serif" font-size="10" fill="#666666" text-anchor="middle">Nivel 3</text>
    <rect x="605" y="575" width="120" height="30" fill="#1e1e1e" rx="4"/>
    <text x="665" y="595" font-family="monospace" font-size="14" fill="#B5CEA8" text-anchor="middle">-3.7038</text>
  </g>
  
  <!-- Legend -->
  <g font-family="sans-serif" font-size="11">
    <rect x="50" y="635" width="15" height="10" fill="#F48771"/>
    <text x="70" y="643" fill="#DCDCDC">Nivel 1 (raíz)</text>
    
    <rect x="200" y="635" width="15" height="10" fill="#61DAFB"/>
    <text x="220" y="643" fill="#DCDCDC">Nivel 2 (anidado)</text>
    
    <rect x="380" y="635" width="15" height="10" fill="#4EC9B0"/>
    <text x="400" y="643" fill="#DCDCDC">Nivel 3 (profundo)</text>
  </g>
</svg>
